# xmcd
#
# Track frame offsets:
#	150
#	10616
#	29505
#	39621
#	56645
#	71557
#	85559
#	99922
#	118259
#	133924
#	146796
#	163779
#	182595
#
# Disc length: 2586 seconds
# Revision: 0
# Processed by: cddbd v1.5.2PL0 Copyright (c) Steve Scherf et al.
# Submitted via: dBpowerAMP V12.0
#
DISCID=b10a180d
DTITLE=Urban Guerillas - Externality
DYEAR=2007
DGENRE=Blues
TTITLE0=Cloud Above my Head
TTITLE1=Hurricane
TTITLE2=Taken my Ball
TTITLE3=Lame For Fame
TTITLE4=Don't Treat me
TTITLE5=So Hard
TTITLE6=Just a Lifetime
TTITLE7=Every Generation
TTITLE8=Valley of Waste
TTITLE9=I Will
TTITLE10=Let's Talk
TTITLE11=Here Come The Americans
TTITLE12=Love Makes Children
EXTD=
EXTT0=
EXTT1=
EXTT2=
EXTT3=
EXTT4=
EXTT5=
EXTT6=
EXTT7=
EXTT8=
EXTT9=
EXTT10=
EXTT11=
EXTT12=
PLAYORDER=
